<svg width="2796" height="2795" viewBox="0 0 2796 2795" fill="none" xmlns="http://www.w3.org/2000/svg">
<circle cx="1399.66" cy="1395.92" r="1306.35" fill="#252525"/>
<g filter="url(#filter0_i_322_2)">
<path d="M2791.12 1513.45C2730.98 2231.02 2129.52 2794.65 1396.41 2794.65C663.001 2794.65 61.3397 2230.5 1.61747 1512.52C0.657449 1500.98 9.82905 1491.1 21.4104 1491.11L2771.34 1492.03C2782.92 1492.03 2792.09 1501.91 2791.12 1513.45Z" fill="#F8F8F8"/>
</g>
<path d="M1396.41 2784.65C2124.27 2784.65 2721.45 2225.05 2781.16 1512.62C2781.63 1506.96 2777.12 1502.03 2771.34 1502.03L21.407 1501.11C15.622 1501.11 11.1126 1506.04 11.5831 1511.69C70.8778 2224.54 668.247 2784.65 1396.41 2784.65Z" stroke="#252525" stroke-width="20"/>
<g filter="url(#filter1_i_322_2)">
<path d="M2794.37 1281.19C2734.23 563.628 2132.77 0 1399.66 0C666.249 0 64.5877 564.143 4.86552 1282.13C3.9055 1293.67 13.0771 1303.54 24.6584 1303.54L2774.59 1302.62C2786.17 1302.62 2795.34 1292.74 2794.37 1281.19Z" fill="#FF4C41"/>
</g>
<path d="M1399.66 10C2127.52 10 2724.7 569.6 2784.4 1282.03C2784.88 1287.69 2780.37 1292.62 2774.59 1292.62L24.6551 1293.54C18.87 1293.54 14.3606 1288.61 14.8311 1282.96C74.1258 570.111 671.495 10 1399.66 10Z" stroke="#252525" stroke-width="20"/>
<circle cx="1399.66" cy="1395.92" r="513.207" fill="#252525"/>
<circle cx="1399.66" cy="1395.92" r="326.586" fill="#F8F8F8"/>
<g filter="url(#filter2_d_322_2)">
<circle cx="1399.66" cy="1395.92" r="233.276" fill="#F8F8F8"/>
<circle cx="1399.66" cy="1395.92" r="223.276" stroke="#252525" stroke-width="20"/>
</g>
<path d="M507.601 723.172C507.601 723.172 800.271 484.846 955.229 307.796C990.348 267.671 1029.3 233.309 1042.45 203.205C1066.38 148.448 926.528 193.321 865.123 218.001C633.028 311.289 403.879 511.936 336.824 728.065C318.533 787.022 322.107 837.834 369.084 833.914C401.233 831.232 507.601 723.172 507.601 723.172Z" fill="white" fill-opacity="0.8"/>
<path d="M220.404 927.761C210.368 958.513 211.975 998.433 243.044 1007.44C273.654 1016.31 305.118 954.46 305.118 954.46C305.118 954.46 331.617 887.011 302.999 874.241C281.274 864.547 232.641 890.265 220.404 927.761Z" fill="white" fill-opacity="0.8"/>
<path d="M171.323 1073.73C172.01 1086.92 175.375 1097.6 187.128 1103.63C207.087 1113.86 224.974 1082.17 224.187 1059.75C223.766 1047.75 221.877 1038.47 212.124 1031.46C193.494 1018.08 170.131 1050.82 171.323 1073.73Z" fill="white" fill-opacity="0.8"/>
<defs>
<filter id="filter0_i_322_2" x="1.54883" y="1491.11" width="2789.64" height="1303.54" filterUnits="userSpaceOnUse" color-interpolation-filters="sRGB">
<feFlood flood-opacity="0" result="BackgroundImageFix"/>
<feBlend mode="normal" in="SourceGraphic" in2="BackgroundImageFix" result="shape"/>
<feColorMatrix in="SourceAlpha" type="matrix" values="0 0 0 0 0 0 0 0 0 0 0 0 0 0 0 0 0 0 127 0" result="hardAlpha"/>
<feOffset dx="-150" dy="-50"/>
<feComposite in2="hardAlpha" operator="arithmetic" k2="-1" k3="1"/>
<feColorMatrix type="matrix" values="0 0 0 0 0 0 0 0 0 0 0 0 0 0 0 0 0 0 0.25 0"/>
<feBlend mode="normal" in2="shape" result="effect1_innerShadow_322_2"/>
</filter>
<filter id="filter1_i_322_2" x="4.79688" y="0" width="2789.64" height="1303.54" filterUnits="userSpaceOnUse" color-interpolation-filters="sRGB">
<feFlood flood-opacity="0" result="BackgroundImageFix"/>
<feBlend mode="normal" in="SourceGraphic" in2="BackgroundImageFix" result="shape"/>
<feColorMatrix in="SourceAlpha" type="matrix" values="0 0 0 0 0 0 0 0 0 0 0 0 0 0 0 0 0 0 127 0" result="hardAlpha"/>
<feOffset dx="-150" dy="-25"/>
<feComposite in2="hardAlpha" operator="arithmetic" k2="-1" k3="1"/>
<feColorMatrix type="matrix" values="0 0 0 0 0 0 0 0 0 0 0 0 0 0 0 0 0 0 0.25 0"/>
<feBlend mode="normal" in2="shape" result="effect1_innerShadow_322_2"/>
</filter>
<filter id="filter2_d_322_2" x="1166.38" y="1162.65" width="476.552" height="476.552" filterUnits="userSpaceOnUse" color-interpolation-filters="sRGB">
<feFlood flood-opacity="0" result="BackgroundImageFix"/>
<feColorMatrix in="SourceAlpha" type="matrix" values="0 0 0 0 0 0 0 0 0 0 0 0 0 0 0 0 0 0 127 0" result="hardAlpha"/>
<feOffset dx="10" dy="10"/>
<feColorMatrix type="matrix" values="0 0 0 0 0 0 0 0 0 0 0 0 0 0 0 0 0 0 0.25 0"/>
<feBlend mode="normal" in2="BackgroundImageFix" result="effect1_dropShadow_322_2"/>
<feBlend mode="normal" in="SourceGraphic" in2="effect1_dropShadow_322_2" result="shape"/>
</filter>
</defs>
</svg>
